<svg xmlns="http://www.w3.org/2000/svg" width="33.202" height="21.176" viewBox="0 0 33.202 21.176">
  <path id="Icon_weather-direction-right" data-name="Icon weather-direction-right" d="M11.928,24.007a2.6,2.6,0,0,0,.754,1.868,2.216,2.216,0,0,0,1.835.656H36.084l-3.376,3.54a2.534,2.534,0,0,0,0,3.671,2.544,2.544,0,0,0,1.9.754,2.324,2.324,0,0,0,1.737-.885l8.03-7.9a2.544,2.544,0,0,0,.754-1.9,2.726,2.726,0,0,0-.787-1.9l-8.1-7.834a2.2,2.2,0,0,0-1.77-.754,2.519,2.519,0,0,0-1.868.721,2.4,2.4,0,0,0-.754,1.835,2.545,2.545,0,0,0,.754,1.868l3.474,3.54h-21.6a2.527,2.527,0,0,0-1.835.819A2.758,2.758,0,0,0,11.928,24.007Z" transform="translate(-11.928 -13.319)"/>
</svg>
